<svg width="15" height="12" viewBox="0 0 15 12" fill="none" xmlns="http://www.w3.org/2000/svg">
<path d="M14.5 3.875C14.5 8.25 8.01312 11.7913 7.73687 11.9375C7.66406 11.9767 7.58268 11.9972 7.5 11.9972C7.41732 11.9972 7.33594 11.9767 7.26312 11.9375C6.98688 11.7913 0.5 8.25 0.5 3.875C0.501158 2.84764 0.909788 1.86269 1.63624 1.13624C2.36269 0.409788 3.34764 0.00115796 4.375 0C5.66563 0 6.79562 0.555 7.5 1.49312C8.20438 0.555 9.33438 0 10.625 0C11.6524 0.00115796 12.6373 0.409788 13.3638 1.13624C14.0902 1.86269 14.4988 2.84764 14.5 3.875Z" fill="#F0E8C2"/>
</svg>
